# AST/ASF file generated using VICON BodyLanguage
# -----------------------------------------------
:version 1.10
:name VICON
:units
  mass 1.0
  length 0.45
  angle deg
:documentation
   .ast/.asf automatically generated from VICON data using
   VICON BodyBuilder and BodyLanguage model FoxedUp or BRILLIANT.MOD
:root
   order TX TY TZ RX RY RZ
   axis XYZ
   position 0 0 0  
   orientation 0 0 0 
:bonedata
  begin
     id 1 
     name lhipjoint
     direction 0.602128 -0.715006 0.355257 
     length 2.21237 
     axis 0 0 0  XYZ
  end
  begin
     id 2 
     name lfemur
     direction 0.34202 -0.939693 0  
     length 6.71649  
     axis 0 0 20  XYZ
    dof rx ry rz
    limits (-160.0 20.0)
           (-70.0 70.0)
           (-60.0 70.0)
  end
  begin
     id 3 
     name ltibia
     direction 0.34202 -0.939693 0   
     length 6.97123   
     axis 0 0 20   XYZ
    dof rx
    limits (-10.0 170.0)
  end
  begin
     id 4 
     name lfoot
     direction 0.0655697 -0.180151 0.981451   
     length 1.80924   
     axis -90 7.62852e-016 20   XYZ
    dof rx rz
    limits (-45.0 90.0)
           (-70.0 20.0)
  end
  begin
     id 5 
     name ltoes
     direction 1.53545e-011 -4.21827e-011 1   
     length 0.916331   
     axis -90 7.62852e-016 20   XYZ
    dof rx
    limits (-90.0 20.0)
  end
  begin
     id 6 
     name rhipjoint
     direction -0.625414 -0.698792 0.347201   
     length 2.2637  
     axis 0 0 0  XYZ 
  end
  begin
     id 7 
     name rfemur
     direction -0.34202 -0.939693 0   
     length 7.07595   
     axis 0 0 -20   XYZ
    dof rx ry rz
    limits (-160.0 20.0)
           (-70.0 70.0)
           (-70.0 60.0)
  end
  begin
     id 8 
     name rtibia
     direction -0.34202 -0.939693 0   
     length 7.22924   
     axis 0 0 -20   XYZ
    dof rx
    limits (-10.0 170.0)
 end
 begin
     id 9 
     name rfoot
     direction -0.0766747 -0.210662 0.974547   
     length 1.98482  
     axis -90 -7.62852e-016 -20   XYZ
    dof rx rz
    limits (-45.0 90.0)
           (-20.0 70.0)
  end
  begin
     id 10 
     name rtoes
     direction -1.53532e-011 -4.21867e-011 1   
     length 0.999842   
     axis -90 -7.62852e-016 -20   XYZ
    dof rx
    limits (-90.0 20.0)
  end
  begin
     id 11 
     name lowerback
     direction -0.0224668 0.997354 -0.0691422   
     length 2.09945   
     axis 0 0 0   XYZ
    dof rx ry rz
    limits (-20.0 45.0)
           (-30.0 30.0)
           (-30.0 30.0)
  end
  begin
     id 12 
     name upperback
     direction 0.0134698 0.998451 -0.0539888   
     length 2.09758   
     axis 0 0 0   XYZ
    dof rx ry rz
    limits (-20.0 45.0)
           (-30.0 30.0)
           (-30.0 30.0)
  end
  begin
     id 13 
     name thorax
     direction 0.0241905 0.99948 -0.0213333   
     length 2.10428   
     axis 0 0 0   XYZ
    dof rx ry rz
    limits (-20.0 45.0)
           (-30.0 30.0)
           (-30.0 30.0)
  end
  begin
     id 14 
     name lowerneck
     direction -0.00866847 0.995978 0.0891737   
     length 1.3959   
     axis 0 0 0   XYZ
    dof rx ry rz
    limits (-20.0 45.0)
           (-30.0 30.0)
           (-30.0 30.0)
  end
  begin
     id 15 
     name upperneck
     direction 0.0680679 0.992203 0.104404   
     length 1.39452   
     axis 0 0 0   XYZ
    dof rx ry rz
    limits (-20.0 45.0)
           (-30.0 30.0)
           (-30.0 30.0)
  end
  begin
     id 16
     name head
     direction 0.0242216 0.999358 0.0264054  
     length 1.40433  
     axis 0 0 0   XYZ
    dof rx ry rz
    limits (-20.0 45.0)
           (-30.0 30.0)
           (-30.0 30.0)
  end
  begin
     id 17 
     name lclavicle
     direction 0.929368 0.362991 -0.0671771  
     length 3.04887  
     axis 0 0 0   XYZ
    dof ry rz
    limits (-20.0 10.0)
           (0.0 20.0)
  end
  begin
     id 18 
     name lhumerus
     direction 1 -4.48967e-011 -7.13741e-028   
     length 4.77195   
     axis -180 -30 -90   XYZ
    dof rx ry rz
    limits (-60.0 90.0)
           (-90.0 90.0)
           (-90.0 90.0)
  end
  begin
     id 19
     name lradius
     direction 1 -4.48977e-011 3.60404e-027   
     length 2.98444   
     axis -180 -30 -90   XYZ
    dof rx
    limits (-10.0 170.0)
  end
  begin
     id 20
     name lwrist
     direction 1 -4.48997e-011 7.54877e-027   
     length 1.49222   
     axis -7.18178e-015 90 90   XYZ
    dof ry
    limits (-180.0 0.0)
 end
  begin
     id 21 
     name lhand
     direction 1 -4.489e-011 1.51105e-026   
     length 0.992285   
     axis -9.63605e-015 90 90   XYZ
    dof rx rz
    limits (-90.0 90.0)
           (-45.0 45.0)
  end
  begin
     id 22 
     name lfingers
     direction 1 -4.48998e-011 3.01948e-026   
     length 0.800006   
     axis -1.92718e-014 90 90   XYZ
    dof rx
    limits (0.0 90.0)
  end
  begin
     id 23
     name lthumb
     direction 0.707107 -6.34881e-011 0.707107   
     length 1.14865   
     axis -90 45 -3.53137e-014   XYZ
    dof rx rz
    limits (-45.0 45.0)
           (-45.0 45.0)
  end
  begin
     id 24 
     name rclavicle
     direction -0.945672 0.324529 0.0196374   
     length 3.4236  
     axis 0 0 0   XYZ 
    dof ry rz
    limits (-10.0 20.0)
           (-20.0 0.0)
  end
  begin
     id 25 
     name rhumerus
     direction -1 -4.4896e-011 1.02757e-029  
     length 4.62052   
     axis -180 30 90   XYZ
    dof rx ry rz
    limits (-90.0 60.0)
           (-90.0 90.0)
           (-90.0 90.0)
  end
  begin
     id 26 
     name rradius
     direction -1 -4.48982e-011 3.85962e-027   
     length 2.95332   
     axis -180 30 90   XYZ
    dof rx
    limits (-10.0 170.0)
  end
  begin
     id 27 
     name rwrist
     direction -1 -4.48961e-011 7.55118e-027   
     length 1.47666   
     axis -7.18178e-015 -90 -90   XYZ
    dof ry
    limits (-180.0 0.0)
  end
  begin
     id 28
     name rhand
     direction -1 -4.48984e-011 1.50994e-026   
     length 0.990956   
     axis -9.63605e-015 -90 -90   XYZ
    dof rx rz
    limits (-90.0 90.0)
           (-45.0 45.0)
  end
  begin
     id 29
     name rfingers
     direction -1 -4.4892e-011 3.02158e-026   
     length 0.798934   
     axis -1.92718e-014 -90 -90   XYZ
    dof rx
    limits (0.0 90.0)
  end
  begin
     id 30
     name rthumb
     direction -0.707107 -6.34916e-011 0.707107   
     length 1.14711   
     axis -90 -45 3.53137e-014   XYZ
    dof rx rz
    limits (-45.0 45.0)
           (-45.0 45.0)
  end
:hierarchy
  begin
    root lhipjoint rhipjoint lowerback
    lhipjoint lfemur
    lfemur ltibia
    ltibia lfoot
    lfoot ltoes
    rhipjoint rfemur
    rfemur rtibia
    rtibia rfoot
    rfoot rtoes
    lowerback upperback
    upperback thorax
    thorax lowerneck lclavicle rclavicle
    lowerneck upperneck
    upperneck head
    lclavicle lhumerus
    lhumerus lradius
    lradius lwrist
    lwrist lhand lthumb
    lhand lfingers
    rclavicle rhumerus
    rhumerus rradius
    rradius rwrist
    rwrist rhand rthumb
    rhand rfingers
  end

#!OML:ASF H:\ManfredObstacles\Project 1\Capture day 1\Session 1\Male.ASF
:FULLY-SPECIFIED
:DEGREES
32
root 0.3988 16.1597 32.6695 -168.382 -3.98267 180.097
lowerback -12.8193 -1.36537 -3.47442
upperback -0.187094 -1.41797 0.476216
thorax 7.10215 -0.854811 2.19751
lowerneck 2.84783 -1.3381 -5.85123
upperneck -16.6419 -1.95472 9.09684
head -5.28759 -1.61975 3.9801
rclavicle -3.47873e-015 7.95139e-015
rhumerus -40.3568 -28.8361 -70.8221
rradius 21.0468
rwrist 44.0227
rhand -2.00179 -6.77613
rfingers 7.12502
rthumb 23.6717 -35.3386
lclavicle -3.47873e-015 7.95139e-015
lhumerus -34.5535 26.1283 74.2741
lradius 15.3843
lwrist -38.2552
lhand -8.72207 9.07267
lfingers 7.12502
lthumb 17.214 38.3302
rfemur -17.8828 -7.66408 23.9678
rtibia 28.4712
rfoot -29.842 7.74286
rtoes 14.952
lfemur -16.9333 -0.556572 -19.5875
ltibia 22.9062
lfoot -11.6246 -9.97758
ltoes -10.2356
33
root 0.394896 16.1587 32.6732 -168.295 -3.80278 179.898
lowerback -12.8551 -1.29427 -3.61015
upperback -0.220821 -1.29355 0.293007
thorax 7.07656 -0.796378 2.10305
lowerneck 2.99548 -1.4169 -5.56792
upperneck -16.6634 -2.05014 9.02141
head -5.31684 -1.67939 3.91549
rclavicle 1.4387e-014 8.34896e-015
rhumerus -40.3346 -28.6989 -71.1978
rradius 21.1824
rwrist 43.711
rhand -1.97101 -6.99128
rfingers 7.12502
rthumb 23.7012 -35.55
lclavicle 1.4387e-014 8.34896e-015
lhumerus -34.2393 25.3306 74.7181
lradius 15.5848
lwrist -37.745
lhand -8.70002 9.33111
lfingers 7.12502
lthumb 17.2352 38.5868
rfemur -18.0146 -7.64321 23.7292
rtibia 28.4907
rfoot -29.8198 7.74133
rtoes 14.0001
lfemur -17.0153 -0.571592 -19.8476
ltibia 22.8985
lfoot -11.7268 -9.81079
ltoes -10.5385
34
root 0.38989 16.1585 32.6767 -168.168 -3.71398 179.773
lowerback -12.9253 -1.237 -3.69587
upperback -0.254856 -1.19753 0.161292
thorax 7.07212 -0.75149 2.02909
lowerneck 3.08832 -1.48131 -5.31182
upperneck -16.6653 -2.12713 8.9436
head -5.33209 -1.7272 3.85253
rclavicle 1.21259e-014 1.45113e-014
rhumerus -40.2859 -28.6701 -71.4871
rradius 21.2994
rwrist 43.4573
rhand -1.98903 -7.16117
rfingers 7.12502
rthumb 23.6839 -35.7221
lclavicle 1.21259e-014 1.45113e-014
lhumerus -33.8705 24.674 75.1312
lradius 15.6821
lwrist -37.2639
lhand -8.85949 9.03355
lfingers 7.12502
lthumb 17.0817 38.3026
rfemur -18.1737 -7.59144 23.5808
rtibia 28.5231
rfoot -29.7905 7.68114
rtoes 13.1157
lfemur -17.1534 -0.617773 -20.0096
ltibia 22.8961
lfoot -11.7423 -9.70624
ltoes -10.5389
35
root 0.383185 16.1589 32.6808 -167.975 -3.73258 179.769
lowerback -13.0328 -1.2576 -3.72605
upperback -0.299087 -1.22142 0.17441
thorax 7.0877 -0.765613 2.05418
lowerneck 3.03996 -1.48208 -5.30742
upperneck -16.5918 -2.12484 8.94301
head -5.30124 -1.72278 3.84838
rclavicle 2.03506e-014 1.72943e-014
rhumerus -40.1059 -28.5538 -71.6896
rradius 21.3885
rwrist 43.237
rhand -2.02376 -7.20471
rfingers 7.12502
rthumb 23.6506 -35.7699
lclavicle 2.03506e-014 1.72943e-014
lhumerus -33.5286 24.2428 75.6068
lradius 15.7566
lwrist -36.6612
lhand -9.01316 8.70158
lfingers 7.12502
lthumb 16.9338 37.9834
rfemur -18.3873 -7.5748 23.5756
rtibia 28.5264
rfoot -29.7564 7.64245
rtoes 12.725
lfemur -17.4441 -0.787159 -20.012
ltibia 22.9702
lfoot -11.7085 -9.62656
ltoes -10.1373
36
root 0.375001 16.1602 32.6825 -167.789 -3.79455 179.865
lowerback -13.1563 -1.31127 -3.66671
upperback -0.34761 -1.30679 0.259859
thorax 7.11145 -0.807773 2.09337
lowerneck 2.95027 -1.46398 -5.45068
upperneck -16.4097 -2.09774 8.96684
head -5.22924 -1.69261 3.87165
rclavicle -1.23743e-014 -8.94531e-015
rhumerus -39.8857 -28.2936 -71.8674
rradius 21.4343
rwrist 42.9963
rhand -2.05318 -6.93547
rfingers 7.12502
rthumb 23.6224 -35.5043
lclavicle -1.23743e-014 -8.94531e-015
lhumerus -33.3128 24.082 75.9944
lradius 15.8771
lwrist -36.247
lhand -8.94329 8.73156
lfingers 7.12502
lthumb 17.001 38.0076
rfemur -18.598 -7.65476 23.6881
rtibia 28.5029
rfoot -29.7347 7.66751
rtoes 12.5943
lfemur -17.7436 -1.11978 -19.8897
ltibia 23.1028
lfoot -11.8857 -9.38046
ltoes -10.5546
37
root 0.364264 16.1617 32.6847 -167.701 -3.87489 180.037
lowerback -13.1344 -1.3259 -3.44168
upperback -0.415719 -1.36809 0.299669
thorax 7.02559 -0.829861 1.99753
lowerneck 2.96466 -1.47041 -5.46656
upperneck -16.2192 -2.10037 8.91376
head -5.17343 -1.67792 3.85175
rclavicle 1.49089e-015 -2.78299e-015
rhumerus -39.7617 -27.9598 -72.155
rradius 21.5182
rwrist 42.6154
rhand -2.08931 -6.82855
rfingers 7.12502
rthumb 23.5877 -35.4019
lclavicle 1.49089e-015 -2.78299e-015
lhumerus -33.2248 24.2348 76.0643
lradius 15.9204
lwrist -36.3984
lhand -8.82185 8.73516
lfingers 7.12502
lthumb 17.1179 38.0011
rfemur -18.7086 -7.76761 23.8599
rtibia 28.4852
rfoot -29.7407 7.72661
rtoes 12.6626
lfemur -17.9035 -1.49729 -19.6924
ltibia 23.22
lfoot -12.1975 -8.96201
ltoes -11.4664
38
root 0.353587 16.1601 32.6849 -167.725 -3.96841 180.102
lowerback -12.994 -1.31843 -3.35078
upperback -0.440119 -1.37711 0.302095
thorax 6.91899 -0.829297 1.94962
lowerneck 3.00316 -1.49998 -5.3738
upperneck -16.1529 -2.14053 8.80418
head -5.15972 -1.6907 3.80159
rclavicle -1.19271e-015 7.55382e-015
rhumerus -39.6657 -27.7193 -72.407
rradius 21.5958
rwrist 42.2946
rhand -2.10182 -7.08834
rfingers 7.12502
rthumb 23.5757 -35.6632
lclavicle -1.19271e-015 7.55382e-015
lhumerus -33.0808 24.3688 76.1313
lradius 15.8768
lwrist -36.6748
lhand -8.74608 8.70032
lfingers 7.12502
lthumb 17.1908 37.9599
rfemur -18.6522 -7.82443 23.8786
rtibia 28.4783
rfoot -29.7102 7.72446
rtoes 12.7284
lfemur -17.937 -1.76661 -19.6264
ltibia 23.3228
lfoot -12.3734 -8.74176
ltoes -11.3858
39
root 0.340682 16.1579 32.681 -167.749 -4.05694 180.033
lowerback -12.9187 -1.32039 -3.43185
upperback -0.409846 -1.36748 0.305004
thorax 6.9106 -0.82641 2.0014
lowerneck 2.93855 -1.53574 -5.42632
upperneck -16.1053 -2.18902 8.81821
head -5.12936 -1.70954 3.81446
rclavicle -2.39287e-014 -1.15295e-014
rhumerus -39.5517 -27.6329 -72.4681
rradius 21.5967
rwrist 42.3042
rhand -2.11673 -7.15688
rfingers 7.12502
rthumb 23.5614 -35.7336
lclavicle -2.39287e-014 -1.15295e-014
lhumerus -32.8346 24.4581 76.3147
lradius 15.7732
lwrist -36.8357
lhand -8.84554 8.45102
lfingers 7.12502
lthumb 17.0951 37.7189
rfemur -18.5796 -7.93524 23.7509
rtibia 28.4771
rfoot -29.6463 7.68116
rtoes 12.2937
lfemur -17.9767 -1.96821 -19.7264
ltibia 23.4327
lfoot -12.3892 -8.74202
ltoes -10.1974
40
root 0.320688 16.1579 32.6791 -167.696 -4.13125 180.031
lowerback -12.8782 -1.32403 -3.35782
upperback -0.411918 -1.38451 0.309356
thorax 6.88496 -0.831731 1.96168
lowerneck 2.85062 -1.54942 -5.49784
upperneck -16.0245 -2.20655 8.84253
head -5.08666 -1.71157 3.83106
rclavicle -7.7526e-015 -1.19271e-015
rhumerus -39.4615 -27.3887 -72.6083
rradius 21.6644
rwrist 42.2011
rhand -2.10015 -7.14424
rfingers 7.12502
rthumb 23.5773 -35.7189
lclavicle -7.7526e-015 -1.19271e-015
lhumerus -32.632 24.8969 76.2787
lradius 15.6034
lwrist -37.2328
lhand -8.96473 7.87666
lfingers 7.12502
lthumb 16.9804 37.1544
rfemur -18.6345 -8.16991 23.7014
rtibia 28.4792
rfoot -29.5982 7.71717
rtoes 11.7936
lfemur -18.1099 -2.1003 -19.7959
ltibia 23.5369
lfoot -12.3799 -8.71682
ltoes -8.73564
41
root 0.297443 16.1556 32.6782 -167.622 -4.18742 180.143
lowerback -12.8402 -1.30807 -3.13901
upperback -0.410193 -1.39757 0.336553
thorax 6.86147 -0.830655 1.86507
lowerneck 2.70164 -1.54593 -5.4507
upperneck -15.9214 -2.20876 8.72784
head -5.03202 -1.70261 3.78136
rclavicle 6.21202e-016 -7.15625e-015
rhumerus -39.3519 -27.1044 -72.8054
rradius 21.7958
rwrist 41.9406
rhand -1.98529 -7.2361
rfingers 7.12502
rthumb 23.6875 -35.7966
lclavicle 6.21202e-016 -7.15625e-015
lhumerus -32.4047 25.3877 76.2433
lradius 15.4729
lwrist -37.6096
lhand -8.98111 7.64357
lfingers 7.12502
lthumb 16.9646 36.9227
rfemur -18.7218 -8.29435 23.758
rtibia 28.4788
rfoot -29.6009 7.70153
rtoes 11.4515
lfemur -18.2656 -2.27242 -19.7493
ltibia 23.6496
lfoot -12.4477 -8.59175
ltoes -7.18667
42
root 0.2751 16.1516 32.6734 -167.604 -4.29533 180.244
lowerback -12.7785 -1.28281 -2.94713
upperback -0.390531 -1.3928 0.355197
thorax 6.84329 -0.821404 1.77825
lowerneck 2.65737 -1.54024 -5.56464
upperneck -15.8818 -2.19431 8.82978
head -5.00993 -1.69381 3.83026
rclavicle 5.76476e-015 7.55382e-015
rhumerus -39.3186 -27.029 -72.8478
rradius 21.9045
rwrist 41.8596
rhand -1.84912 -7.23128
rfingers 7.12502
rthumb 23.8181 -35.7748
lclavicle 5.76476e-015 7.55382e-015
lhumerus -32.1793 25.519 76.402
lradius 15.4261
lwrist -37.7272
lhand -9.01555 7.92414
lfingers 7.12502
lthumb 16.9315 37.2061
rfemur -18.7155 -8.29126 23.7914
rtibia 28.4859
rfoot -29.7469 7.48732
rtoes 10.7236
lfemur -18.3617 -2.5188 -19.6891
ltibia 23.7932
lfoot -12.567 -8.51271
ltoes -5.79676
